<svg width="255" height="255" xmlns="http://www.w3.org/2000/svg">
	<g fill-rule="nonzero" fill="none">
		<path fill="#F06" d="M0 0h255v255H0z"/>
		<path d="M89.32 83.12c8.1-.033 14.644-6.618 14.628-14.718-.017-8.1-6.588-14.658-14.688-14.658-8.1 0-14.672 6.558-14.689 14.658-.016 8.1 6.528 14.685 14.628 14.718h.121zM58.49 161.59a50 50 0 00-1.32 11c0 12.9 7 21.47 21.87 21.47 12.34 0 22.34-7.33 29.53-19.15l-4.39 17.64h24.49l14-56.14c3.49-14.21 10.27-21.59 20.55-21.59 8.09 0 13.12 5 13.12 13.34a26.3 26.3 0 01-1.09 7.87l-7.22 25.8a38.969 38.969 0 00-1.53 10.94c0 12.25 7.22 21.21 22.31 21.21 12.9 0 23.18-8.31 28.86-28.21l-9.62-3.71c-4.81 13.33-9 15.74-12.24 15.74s-5-2.18-5-6.56a28.794 28.794 0 011.1-6.78l7-25.14a55.375 55.375 0 002.4-15.94c0-18.81-11.37-28.63-25.15-28.63-12.9 0-26 11.64-32.58 23.89l4.81-22h-37.43L105.71 116h17.49l-10.77 43.13c-8.46 18.81-24 19.11-25.95 18.68-3.2-.73-5.25-1.94-5.25-6.1.1-3.383.614-6.742 1.53-10l16.4-65.06H57.61L52.36 116h17.28l-11.15 45.59z"
			  fill="#FFF"/>
	</g>
</svg>
