<svg xmlns="http://www.w3.org/2000/svg" xmlns:xlink="http://www.w3.org/1999/xlink" width="400" height="400" enable-background="new 0 0 400 400" viewBox="0 0 400 400"><path fill="#FCD2B1" d="M244.568,271.873v66.052l-44.562,25.464l-44.574-25.464v-66.052h1.275l8.979,5.892l2.491,1.634
					l8.904,5.844c6.362,3.823,13.369,5.731,21.007,5.731h3.182c7.647,0,14.653-1.908,21.017-5.731l10.395-6.618l10.622-6.751
					H244.568z"/><path fill="#FFE3CA" d="M270.04,189.099c0-38.843-31.198-70.04-70.04-70.04c-38.84,0-70.038,31.197-70.038,70.04h-6.369v12.734
					c0,7.004,5.731,12.736,12.734,12.736l0,0v23.56c0,13.369,7.004,25.468,17.831,32.47l23.559,14.645
					c6.366,3.823,13.37,5.733,21.011,5.733h3.184c7.642,0,14.645-1.91,21.013-5.733l23.56-14.645
					c11.462-7.002,17.829-19.101,17.829-32.47v-23.56l0,0c7.003,0,12.731-5.731,12.731-12.736v-12.734H270.04z"/><path fill="#FCD2B1" d="M244.568,330.523c-5.475,8.687-15.587,16.164-34.007,17.562c-30.053,2.275-47.094-8.762-55.13-22.716
					c-4.776-8.29-6.372-17.599-5.635-25.766l5.635-0.774l16.665-2.275h60.236l12.235,2.125l5.628,0.982
					C250.196,299.66,253.321,316.625,244.568,330.523z"/><defs><path id="a" d="M155.432,325.368c-4.776-8.29-6.372-17.599-5.635-25.766c0.349,5.373,2.35,10.442,5.635,14.946
							c8.395,11.481,25.2,19.317,44.574,19.317c19.364,0,36.17-7.836,44.562-19.326c3.277-4.485,5.269-9.526,5.628-14.879
							c0,0,3.125,16.966-5.628,30.863v7.402l-44.562,25.464l-44.574-25.464V325.368z"/></defs><clipPath id="b"><use overflow="visible" xlink:href="#a"/></clipPath><rect width="104.262" height="22.23" x="149.059" y="299.602" fill="#4D4D4D" clip-path="url(#b)"/><rect width="104.262" height="1.406" x="149.059" y="321.832" fill="#4D4D4D" clip-path="url(#b)"/><rect width="104.262" height="1.406" x="149.059" y="323.238" fill="#4C4C4C" clip-path="url(#b)"/><rect width="104.262" height="1.402" x="149.059" y="324.645" fill="#4B4B4B" clip-path="url(#b)"/><rect width="104.262" height="1.406" x="149.059" y="326.047" fill="#4A4A4A" clip-path="url(#b)"/><rect width="104.262" height="1.406" x="149.059" y="327.453" fill="#494949" clip-path="url(#b)"/><rect width="104.262" height="1.406" x="149.059" y="328.859" fill="#484848" clip-path="url(#b)"/><rect width="104.262" height="1.406" x="149.059" y="330.266" fill="#474747" clip-path="url(#b)"/><rect width="104.262" height="1.402" x="149.059" y="331.672" fill="#464646" clip-path="url(#b)"/><rect width="104.262" height="1.406" x="149.059" y="333.074" fill="#454545" clip-path="url(#b)"/><rect width="104.262" height="1.406" x="149.059" y="334.48" fill="#444" clip-path="url(#b)"/><rect width="104.262" height="1.406" x="149.059" y="335.887" fill="#434343" clip-path="url(#b)"/><rect width="104.262" height="1.402" x="149.059" y="337.293" fill="#424242" clip-path="url(#b)"/><rect width="104.262" height="1.406" x="149.059" y="338.695" fill="#414141" clip-path="url(#b)"/><rect width="104.262" height="1.406" x="149.059" y="340.102" fill="#3F3F3F" clip-path="url(#b)"/><rect width="104.262" height="1.406" x="149.059" y="341.508" fill="#3E3E3E" clip-path="url(#b)"/><rect width="104.262" height="1.402" x="149.059" y="342.914" fill="#3D3D3D" clip-path="url(#b)"/><rect width="104.262" height="1.406" x="149.059" y="344.316" fill="#3C3C3C" clip-path="url(#b)"/><rect width="104.262" height="1.406" x="149.059" y="345.723" fill="#3B3B3B" clip-path="url(#b)"/><rect width="104.262" height="1.406" x="149.059" y="347.129" fill="#3A3A3A" clip-path="url(#b)"/><rect width="104.262" height="1.402" x="149.059" y="348.535" fill="#393939" clip-path="url(#b)"/><rect width="104.262" height="1.406" x="149.059" y="349.938" fill="#383838" clip-path="url(#b)"/><rect width="104.262" height="1.406" x="149.059" y="351.344" fill="#373737" clip-path="url(#b)"/><rect width="104.262" height="1.406" x="149.059" y="352.75" fill="#363636" clip-path="url(#b)"/><rect width="104.262" height="1.406" x="149.059" y="354.156" fill="#353535" clip-path="url(#b)"/><rect width="104.262" height="1.402" x="149.059" y="355.562" fill="#343434" clip-path="url(#b)"/><rect width="104.262" height="1.406" x="149.059" y="356.965" fill="#333" clip-path="url(#b)"/><rect width="104.262" height="5.02" x="149.059" y="358.371" fill="#333" clip-path="url(#b)"/><path fill="#0B4870" d="M333.714,367.948c-59.857,17.194-207.578,17.194-267.428,0l3.824-28.663
					c1.274-9.546,8.271-17.816,17.826-21.007l42.816-12.926c-3.588,5.731-5.562,12-5.562,18.562
					c0,27.333,34.264,49.501,76.522,49.501c42.271,0,76.523-22.168,76.523-49.501c0-5.957-1.624-11.67-4.607-16.957l38.436,11.962
					c9.546,3.182,16.551,10.829,17.826,21.007L333.714,367.948z"/><path fill="#0E538C" d="M228.868,128.696l4.436,31.362c20.258,4.051,23.176,35.84,23.596,44.921
					c0.076,1.644,0.602,3.235,1.498,4.622l7.728,11.991c0,0-2.646-19.822,9.468-33.136
					C275.593,188.457,279.751,109.764,228.868,128.696z"/><path fill="#0E538C" d="M150.173,125.001c-31.654,23.372-25.737,63.455-25.737,63.455c9.467,9.468,9.467,33.133,9.467,33.133
					l9.467-9.465c0,0-3.653-27.348,14.2-37.868c16.567-9.76,31.063-4.73,45.855-4.73c39.643,0,50.736-14.944,48.813-33.138
					c-0.994-9.413-15.389-29.021-52.066-28.398C200.172,107.99,164.503,110.167,150.173,125.001z"/><path fill="#0B4870" d="M269.025,76.222c-0.004-1.085-0.469-2.119-1.279-2.84c-0.813-0.721-1.903-1.058-2.974-0.933
							L135.488,87.671c-1.914,0.225-3.36,1.851-3.36,3.779v34.25c0,15.02,43.059,19.029,68.5,19.029
							c25.442,0,68.5-4.009,68.5-19.029c0,0,0-0.005,0-0.007L269.025,76.222z"/><path fill="#0B4870" d="M269.025,87.646h-68.501v57.083c0.034,0,0.069,0.001,0.104,0.001c24.776,0,66.243-3.806,68.397-17.876
							V87.646z"/><path fill="#0E538C" d="M314.06,55.209l-97.389-33.391c-10.346-3.549-21.74-3.549-32.086,0L87.2,55.209
							c-4.686,1.605-7.719,5.844-7.719,10.799c0,4.954,3.033,9.192,7.719,10.798l97.385,33.39
							c5.174,1.774,10.607,2.661,16.043,2.661c5.438,0,10.871-0.886,16.045-2.661l97.388-33.39
							c4.687-1.605,7.716-5.844,7.716-10.798C321.775,61.053,318.747,56.814,314.06,55.209z"/><path fill="#2A94F4" d="M272.83,148.534c-2.103,0-3.805-1.704-3.805-3.805V95.004c0-1.626-1.034-3.074-2.573-3.602
								L199.29,68.376c-1.987-0.682-3.047-2.845-2.366-4.834c0.684-1.988,2.843-3.052,4.835-2.365l67.162,23.027
								c4.615,1.583,7.715,5.921,7.715,10.8v49.725C276.636,146.83,274.934,148.534,272.83,148.534z"/><path fill="#FFBE55" d="M276.636,175.174h-7.61c-2.103,0-3.807-1.704-3.807-3.806v-22.833c0-4.204,3.408-7.611,7.611-7.611
							l0,0c4.204,0,7.611,3.408,7.611,7.611v22.833C280.441,173.47,278.737,175.174,276.636,175.174z"/><path fill="#5C546A" d="M274.025,117.281c0.026-0.017,0.059-0.032,0.085-0.048l-0.021-10.416
								c-0.005,0.059-0.053,0.126-0.063,0.185V117.281z"/><ellipse cx="200.628" cy="64.812" fill="#D3D3D3" rx="15.223" ry="7.611"/><g><path fill="#0B4870" d="M250.575,305.393c0,0,3.125,16.966-5.628,30.863v7.402l-44.562,25.464l-44.574-25.464v-12.557
					c-4.776-8.29-6.372-17.599-5.635-25.766l-6.591,1.992c1.228-2.587,2.635-5.079,4.211-7.459
					c11.226,17.07,30.553,28.333,52.504,28.333s41.277-11.263,52.503-28.333c1.586,2.407,3.012,4.919,4.249,7.544L250.575,305.393z"/></g><g><path fill="#FFBE55" d="M278.237,323.914c0,14.124-9.148,26.87-23.82,35.887c-13.719,8.441-32.271,13.614-52.703,13.614
					c-23.357,0-44.27-6.77-58.31-17.447c-11.358-8.639-18.213-19.836-18.213-32.054c0-6.562,1.974-12.831,5.562-18.562l12.453-3.757
					l6.591-1.992c-0.737,8.167,0.858,17.476,5.635,25.766v12.557l44.574,25.464l44.562-25.464v-7.402
					c8.753-13.897,5.628-30.863,5.628-30.863l6.477,2.02l16.957,5.277C276.613,312.244,278.237,317.957,278.237,323.914z"/></g></svg>